# xmcd CD database file
#
# Track frame offsets:
#	150
#	13580
#	26637
#	44857
#	58127
#	71117
#	83379
#	100952
#	113212
#	127977
#	150080
#	169935
#	183570
#	194800
#	216990
#	227884
#	238852
#	253200
#	267932
#	279447
#
# Disc length: 3973 seconds
#
# Revision: 2
# Processed by: cddbd v1.5.2PL0 Copyright (c) Steve Scherf et al.
# Submitted via: CDex 1.51
#
DISCID=2a0f8314
DTITLE=Various Artist - Classics From the Roadhouse Disc 1
DYEAR=1996
DGENRE=Blues
TTITLE0=Sweet Home Chicago/Honeyboy Edwards
TTITLE1=I Keep Loving Her/Little Walter
TTITLE2=You Used To Call Me/Clifton Chenier
TTITLE3=Rock Me Baby/B.B. King
TTITLE4=Tip On In (Part 1)/Slim Harpo
TTITLE5=Lookin' For My Baby/Little Milton
TTITLE6=Kansas City/James Brown
TTITLE7=Shim Sham Shimmy/Champion Jack Dupree
TTITLE8=Nothing Takes the Place of You/Toussaint McCall
TTITLE9=Wang Dang Doodle/Koko Taylor
TTITLE10=I've Got My Mojo Working/Muddy Waters
TTITLE11=I Just Want a Little Bit/Magic Sam
TTITLE12=Cut and Dried/Wild Jimmy Spruill
TTITLE13=Wine Drinking Woman/Lightening Hopkins
TTITLE14=Matchbox (Version B)/Ike Turner's Kings of Rhythm
TTITLE15=Baby Don't You Tear My Clothes/Smokey Hogg
TTITLE16=Dynamite At Midnite/King Curtis
TTITLE17=Dust My Blues/Elmore James
TTITLE18=I'd Rather Go Blind/Etta James
TTITLE19=Have Mercy Baby/The Jelly Roll Kings
EXTD=YEAR: 1996
EXTT0=
EXTT1=
EXTT2=
EXTT3=
EXTT4=
EXTT5=
EXTT6=
EXTT7=
EXTT8=
EXTT9=
EXTT10=
EXTT11=
EXTT12=
EXTT13=
EXTT14=
EXTT15=
EXTT16=
EXTT17=
EXTT18=
EXTT19=
PLAYORDER=
